HIERARCHY
ROOT Hips
{
	OFFSET -0.001795 -0.223333 0.028219
	CHANNELS 6 Xposition Yposition Zposition Zrotation Yrotation Xrotation 
	JOINT LeftUpLeg
	{
		OFFSET 0.069520 -0.091406 -0.006815
		CHANNELS 3 Zrotation Yrotation Xrotation
		JOINT LeftLeg
		{
			OFFSET 0.034277 -0.375199 -0.004496
			CHANNELS 3 Zrotation Yrotation Xrotation
			JOINT LeftFoot
			{
				OFFSET -0.013596 -0.397961 -0.043693
				CHANNELS 3 Zrotation Yrotation Xrotation
				JOINT LeftToe
				{
					OFFSET 0.026358 -0.055791 0.119288
					CHANNELS 3 Zrotation Yrotation Xrotation
					End Site
					{
						OFFSET 0.000000 0.000000 0.000000
					}
				}
			}
		}
	}
	JOINT RightUpLeg
	{
		OFFSET -0.067670 -0.090522 -0.004320
		CHANNELS 3 Zrotation Yrotation Xrotation
		JOINT RightLeg
		{
			OFFSET -0.038290 -0.382569 -0.008850
			CHANNELS 3 Zrotation Yrotation Xrotation
			JOINT RightFoot
			{
				OFFSET 0.015774 -0.398415 -0.042312
				CHANNELS 3 Zrotation Yrotation Xrotation
				JOINT RightToe
				{
					OFFSET -0.025372 -0.048144 0.123348
					CHANNELS 3 Zrotation Yrotation Xrotation
					End Site
					{
						OFFSET 0.000000 0.000000 0.000000
					}
				}
			}
		}
	}
	JOINT Spine
	{
		OFFSET -0.002533 0.108963 -0.026696
		CHANNELS 3 Zrotation Yrotation Xrotation
		JOINT Spine1
		{
			OFFSET 0.005487 0.135180 0.001092
			CHANNELS 3 Zrotation Yrotation Xrotation
			JOINT Spine2
			{
				OFFSET 0.001457 0.052922 0.025425
				CHANNELS 3 Zrotation Yrotation Xrotation
				JOINT Neck
				{
					OFFSET -0.002778 0.213870 -0.042857
					CHANNELS 3 Zrotation Yrotation Xrotation
					JOINT Head
					{
						OFFSET 0.005152 0.064970 0.051349
						CHANNELS 3 Zrotation Yrotation Xrotation
						End Site
						{
							OFFSET 0.000000 0.000000 0.000000
						}
					}
				}
				JOINT LeftShoulder
				{
					OFFSET 0.078845 0.121749 -0.034090
					CHANNELS 3 Zrotation Yrotation Xrotation
					JOINT LeftArm
					{
						OFFSET 0.090977 0.030469 -0.008868
						CHANNELS 3 Zrotation Yrotation Xrotation
						JOINT LeftForeArm
						{
							OFFSET 0.259612 -0.012772 -0.027456
							CHANNELS 3 Zrotation Yrotation Xrotation
							JOINT LeftHand
							{
								OFFSET 0.249234 0.008986 -0.001171
								CHANNELS 3 Zrotation Yrotation Xrotation
								End Site
								{
									OFFSET 0.000000 0.000000 0.000000
								}
							}
						}
					}
				}
				JOINT RightShoulder
				{
					OFFSET -0.081759 0.118833 -0.038615
					CHANNELS 3 Zrotation Yrotation Xrotation
					JOINT RightArm
					{
						OFFSET -0.096012 0.032551 -0.009143
						CHANNELS 3 Zrotation Yrotation Xrotation
						JOINT RightForeArm
						{
							OFFSET -0.253742 -0.013329 -0.021401
							CHANNELS 3 Zrotation Yrotation Xrotation
							JOINT RightHand
							{
								OFFSET -0.255298 0.007772 -0.005559
								CHANNELS 3 Zrotation Yrotation Xrotation
								End Site
								{
									OFFSET 0.000000 0.000000 0.000000
								}
							}
						}
					}
				}
			}
		}
	}
}
MOTION
Frames: 8
Frame Time: 0.050000
-0.057551 0.842968 0.223355 0.588324 14.857989 -0.281249 0.069501 -5.013570 -35.974667 -5.700172 -4.072849 66.042433 3.636432 5.558990 -5.539917 0.000000 0.000000 0.000000 -5.590791 0.092289 -34.654526 4.688557 -6.603740 64.365838 -6.018911 -13.658433 -10.349027 0.000000 0.000000 0.000000 1.923487 -2.557985 26.430724 0.175971 0.299954 -5.755231 2.368409 -5.009190 8.440322 -3.800858 3.737818 -21.439156 0.000000 0.000000 0.000000 -1.331013 0.546163 -0.321462 -60.531427 6.433293 -11.240168 -46.627878 -32.758805 15.846812 0.000000 0.000000 0.000000 -2.914524 -0.594240 -0.029178 61.434132 -15.060391 -13.833289 62.056466 45.047604 30.012705 0.000000 0.000000 0.000000 
-0.062768 0.796436 0.218687 -0.027147 15.043595 -0.792555 1.498122 -5.643051 -41.168882 -8.472963 -2.504435 75.894148 5.735397 9.883540 -8.516466 0.000000 0.000000 0.000000 -4.243393 0.199673 -41.964524 2.154675 -5.723792 77.395740 -7.489342 -17.770676 -9.287911 0.000000 0.000000 0.000000 1.991831 -3.625125 33.289493 0.250530 0.267495 -5.870578 3.429387 -3.555960 6.447552 -4.716143 4.341877 -24.546714 0.000000 0.000000 0.000000 -3.515937 0.877879 -0.713409 -61.099935 8.900991 -12.518096 -39.638759 -27.525616 11.021849 0.000000 0.000000 0.000000 -0.019111 -0.230470 -0.081271 62.694521 -12.942557 -12.844056 51.696252 47.430709 26.130002 0.000000 0.000000 0.000000 
-0.068964 0.781424 0.213777 0.325875 15.198325 1.588850 3.241944 -6.041907 -46.274925 -10.697299 -0.041059 78.717434 7.059898 13.405009 -8.660753 0.000000 0.000000 0.000000 -4.749234 -0.309499 -46.772649 2.360027 -5.811827 79.891295 -7.970600 -19.088824 -10.002870 0.000000 0.000000 0.000000 2.058385 -3.902744 34.592685 0.524773 0.182095 -6.577390 3.521252 -2.739658 5.547167 -5.862720 4.955130 -25.021441 0.000000 0.000000 0.000000 -4.626352 -0.372223 -0.426808 -61.134812 9.186278 -12.576281 -37.680149 -23.744545 8.836199 0.000000 0.000000 0.000000 -0.468532 0.841809 0.311457 63.979625 -10.632615 -11.609660 46.396324 49.017674 24.365520 0.000000 0.000000 0.000000 
-0.075108 0.786306 0.207026 0.330711 14.723076 5.162787 5.365426 -5.903129 -50.712392 -11.996235 2.071007 79.395945 6.830603 13.599211 -5.625396 0.000000 0.000000 0.000000 -4.294219 -0.287152 -51.697195 3.175327 -5.869541 79.332069 -7.508720 -17.686458 -10.417125 0.000000 0.000000 0.000000 1.778357 -4.033053 36.065578 0.467285 0.286057 -8.518222 3.539498 -1.651367 4.337644 -4.324594 4.210180 -25.343552 0.000000 0.000000 0.000000 -3.559339 -1.985453 0.251449 -62.295417 8.583257 -12.422728 -37.583381 -22.655720 8.230200 0.000000 0.000000 0.000000 0.343916 1.760708 0.622089 63.755742 -7.210264 -9.392558 42.045153 52.022209 23.788534 0.000000 0.000000 0.000000 
-0.080335 0.798577 0.200178 0.897258 14.122702 9.338079 5.729919 -6.025398 -53.267123 -11.779705 2.472954 76.913204 6.675472 13.355046 -5.598980 0.000000 0.000000 0.000000 -4.240650 -0.305647 -55.277986 4.159980 -6.090447 77.897023 -7.383932 -17.414354 -9.793355 0.000000 0.000000 0.000000 1.896137 -3.901680 35.166978 0.437042 0.317289 -9.413584 2.993112 -1.241401 3.846503 -5.436514 4.700823 -27.105199 0.000000 0.000000 0.000000 -5.770070 -1.659938 -0.175036 -60.220365 6.221039 -10.486405 -36.873649 -24.914295 8.843347 0.000000 0.000000 0.000000 -0.930227 1.914140 0.719247 63.808367 -2.585999 -6.610405 40.187007 55.770273 24.851943 0.000000 0.000000 0.000000 
-0.084331 0.808194 0.196837 0.859082 12.518344 11.498145 5.451174 -5.839425 -53.833366 -10.273346 1.748366 74.361981 6.307419 12.102709 -7.277627 0.000000 0.000000 0.000000 -3.760669 0.310563 -57.328887 4.794866 -5.842280 77.364614 -7.123116 -16.722810 -9.500386 0.000000 0.000000 0.000000 1.755270 -3.373695 33.056287 0.288443 0.363485 -9.893682 2.013286 -0.772602 5.339631 -3.718371 4.002107 -30.264453 0.000000 0.000000 0.000000 -4.664324 -5.467758 1.439639 -60.735987 -0.414203 -7.360191 -33.167308 -35.181669 11.589533 0.000000 0.000000 0.000000 -0.930775 4.799637 1.769412 62.159983 5.480991 -2.271699 31.066621 61.153257 22.302903 0.000000 0.000000 0.000000 
-0.087426 0.820010 0.199917 0.976421 12.658939 11.296431 2.756699 -6.481940 -50.697181 -6.965620 -1.567890 71.630536 6.162849 10.912930 -9.842847 0.000000 0.000000 0.000000 -2.931208 0.780721 -55.368802 4.382761 -5.581724 76.430621 -6.978778 -16.388139 -8.765416 0.000000 0.000000 0.000000 1.550583 -3.036202 31.094753 0.245094 0.342137 -8.874345 2.259896 -3.895467 4.585508 -5.144006 4.257888 -30.590008 0.000000 0.000000 0.000000 -5.356301 -9.080928 3.136347 -58.506525 -9.235432 -2.420665 -29.835843 -50.350767 16.299326 0.000000 0.000000 0.000000 -2.728024 10.394892 3.643020 58.627859 16.138974 2.733965 15.007957 68.038156 13.566183 0.000000 0.000000 0.000000 
-0.090444 0.838903 0.212645 0.787781 12.616693 9.478467 1.827156 -5.648131 -44.286497 -5.409448 -2.966876 67.203457 6.660213 11.385555 -11.753647 0.000000 0.000000 0.000000 -2.865797 1.009171 -50.016113 4.785582 -6.066394 73.256237 -6.277129 -14.471314 -7.915871 0.000000 0.000000 0.000000 1.761171 -2.901303 29.793935 -0.479871 0.664898 -10.201846 1.735870 -5.264278 7.462528 -4.503232 3.938522 -32.400058 0.000000 0.000000 0.000000 0.664677 -11.339215 4.026287 -57.977234 -21.560337 3.536100 -33.963967 -70.157671 28.162275 0.000000 0.000000 0.000000 -8.618280 10.238776 3.401463 57.232159 25.503809 6.932552 -10.974917 76.057530 -4.374486 0.000000 0.000000 0.000000 
